<!-- Created with Inkscape (http://www.inkscape.org/) -->
<svg xmlns:rdf="http://www.w3.org/1999/02/22-rdf-syntax-ns#" xmlns="http://www.w3.org/2000/svg" version="1.0" xmlns:cc="http://creativecommons.org/ns#" xmlns:dc="http://purl.org/dc/elements/1.1/" viewBox="0 0 100 46.106">
	<metadata>
		<rdf:RDF>
			<cc:Work rdf:about="">
				<dc:format>image/svg+xml</dc:format>
				<dc:type rdf:resource="http://purl.org/dc/dcmitype/StillImage"/>
				<dc:title/>
			</cc:Work>
		</rdf:RDF>
	</metadata>
	<g fill="#F65">
		<path d="m0,0.48722,1.8696,0,0,26.771-1.8696,0z"/>
		<path d="m8.5481,22.425c0.97527,1.11,2.14,1.99,3.4943,2.6401,1.3542,0.65005,2.8165,0.97507,4.3869,0.97507,2.0315,0.000001,3.6498-0.49425,4.8549-1.4827,1.205-0.9885,1.8075-2.2816,1.8076-3.8792-0.000018-0.83972-0.12854-1.5439-0.38556-2.1125-0.25706-0.56862-0.60233-1.0629-1.0358-1.4827-0.43352-0.41985-0.94822-0.78558-1.5441-1.0972-0.59592-0.31158-1.2187-0.61615-1.8683-0.9137l-4.063-1.829c-0.568-0.244-1.171-0.542-1.807-0.894-0.637-0.352-1.219-0.792-1.747-1.32s-0.9684-1.151-1.3205-1.8684-0.5282-1.5774-0.5281-2.58c-0.0001-0.9752,0.1962-1.8623,0.5888-2.6611s0.9338-1.4893,1.6248-2.0716c0.69-0.5823,1.51-1.0358,2.458-1.3607,0.948-0.32478,1.977-0.48719,3.088-0.48722,1.625,0.000027259,3.074,0.31823,4.347,0.95461,1.272,0.63639,2.315,1.3877,3.127,2.2539l-1.097,1.2596c-0.785-0.8397-1.706-1.51-2.762-2.0109-1.056-0.5008-2.261-0.7513-3.615-0.7513-1.7877,0.0000256-3.2166,0.43332-4.2865,1.2999-1.0699,0.86661-1.6049,2.0314-1.6049,3.4943-0.000005,0.7852,0.14897,1.4487,0.44693,1.9904,0.29795,0.54179,0.67711,1.009,1.1375,1.4015,0.46036,0.39261,0.96142,0.73106,1.5032,1.0154,0.54176,0.28433,1.0565,0.53476,1.5441,0.75129l4.0627,1.7877c0.73062,0.32483,1.4346,0.69035,2.1119,1.0966,0.6773,0.40624,1.2732,0.88024,1.7877,1.422,0.51448,0.54178,0.92753,1.185,1.2391,1.9297,0.31157,0.74469,0.46737,1.6315,0.46739,2.6605-0.00002,1.029-0.20313,1.9836-0.60934,2.8638-0.40624,0.88023-0.9819,1.6385-1.727,2.275-0.74511,0.63641-1.6458,1.1375-2.702,1.5032-1.0563,0.36573-2.2341,0.54859-3.5333,0.54859-1.9506,0-3.6773-0.37234-5.1803-1.117-1.5047-0.746-2.7844-1.714-3.8406-2.906z"/>
		<path d="M41.766,16.492,40.06,11.496c-0.542-1.5974-1.057-3.1274-1.544-4.5899s-0.961-3.0199-1.422-4.6721h-0.16241c-0.461,1.6522-0.935,3.2096-1.422,4.6721-0.488,1.4625-1.002,2.9925-1.544,4.5899l-1.7059,4.9962zm0.52814,1.5844-10.604,0-3.1279,9.1816-1.9092,0,9.4655-26.771,1.8683,0,9.4259,26.771-1.991,0z"/>
		<path d="m51.415,0.48722,1.8696,0,0,26.771-1.8696,0z"/>
		<path d="M72.314,16.492,70.608,11.496c-0.542-1.5974-1.057-3.1274-1.544-4.5899-0.488-1.4625-0.962-3.0199-1.423-4.6721h-0.16241c-0.461,1.6522-0.934,3.2096-1.422,4.6721-0.487,1.4625-1.002,2.9925-1.544,4.5899l-1.7059,4.9962zm0.52814,1.5844-10.604,0-3.1279,9.1816-1.9092,0,9.4655-26.771,1.8683,0,9.4259,26.771-1.991,0z"/>
		<path d="m81.963,0.48722,1.8696,0,0,11.74,14.299,0,0-11.74,1.8683,0,0,26.771-1.8683,0,0-13.405-14.299,0,0,13.405-1.8696,0z"/>
	</g>
	<g fill="#F65">
		<path d="m0,32.721,3.5509,0c1.3165,0.000013,2.3672,0.25935,3.1519,0.778,0.78469,0.51868,1.177,1.3233,1.177,2.4138-0.0000097,0.69157-0.19289,1.2933-0.57863,1.8053-0.38576,0.51198-0.97089,0.8676-1.7554,1.0669v0.07975c0.97077,0.14652,1.7387,0.48245,2.3039,1.0078,0.56513,0.52537,0.84769,1.2469,0.84771,2.1645-0.0000106,0.63799-0.11639,1.1964-0.34913,1.6753-0.23276,0.4789-0.5619,0.87794-0.98742,1.1971-0.42554,0.3192-0.93751,0.55854-1.5359,0.71804-0.59842,0.1595-1.27,0.23924-2.0147,0.23924l-3.8103-0.001zm3.1717,5.7851c1.3567,0.000007,2.3276-0.21945,2.9126-0.65838C6.6693164,37.408583,6.9618277,36.756901,6.9618365,35.892446,6.9618277,35.041403,6.6526768,34.426348,6.034383,34.047279,5.4160734,33.668233,4.5018108,33.478705,3.2915923,33.478692l-2.37357468,0,0,5.027182zm0.39935,6.6027c1.3165,0.000001,2.3472-0.24604,3.0919-0.73813,0.74471-0.49208,1.1171-1.27,1.1171-2.3337-0.0000097-0.94439-0.36578-1.646-1.0973-2.1048-0.73154-0.4588-1.7688-0.6882-3.1117-0.68821h-2.653v5.8648z"/>
		<path d="m11.377,32.721,0.91802,0,0,13.146-0.91802,0z"/>
		<path d="m16.013,32.721,0.91802,0,0,12.348,6.0438,0,0,0.79809-6.9618,0z"/>
		<path d="m25.208,32.721,0.91802,0,0,12.348,6.0438,0,0,0.79809-6.9618,0z"/>
		<path d="m34.403,32.721,0.91802,0,0,13.146-0.91802,0z"/>
		<path d="m39.039,32.721,0.95759,0,5.5258,9.2758,1.4957,2.6134,0.07975,0c-0.02639-0.63839-0.05287-1.2768-0.07944-1.9152-0.02659-0.63839-0.03988-1.2768-0.03988-1.9152v-8.0588h0.85775v13.146h-0.95759l-5.5258-9.2758-1.4957-2.6134h-0.07975c0.02638,0.6384,0.05286,1.2602,0.07944,1.8653,0.02658,0.60512,0.03987,1.2269,0.03987,1.8653v8.1587h-0.85775z"/>
		<path d="m50.727,39.264c-0.000001-1.0373,0.13961-1.9749,0.41883-2.8128,0.27922-0.83785,0.67492-1.5526,1.1871-2.1444,0.51217-0.59171,1.1273-1.0438,1.8455-1.3563,0.71813-0.31249,1.5092-0.46874,2.3733-0.46875,0.43912,0.000014,0.84151,0.04648,1.2072,0.13941,0.36566,0.09295,0.6948,0.21592,0.98742,0.36891,0.2926,0.15302,0.55194,0.32266,0.778,0.50893,0.22604,0.18629,0.42552,0.37237,0.59842,0.55824l-0.53876,0.59842c-0.34579-0.37215-0.75802-0.68789-1.2367-0.94724-0.4787-0.25932-1.0772-0.38899-1.7956-0.389-0.75772,0.000012-1.4358,0.13962-2.0342,0.41883-0.59842,0.27923-1.1071,0.67483-1.5262,1.1868-0.41904,0.51198-0.74158,1.1337-0.96763,1.8653-0.22606,0.73154-0.33908,1.5561-0.33908,2.4737-0.000002,0.91762,0.10643,1.7454,0.3193,2.4835,0.21286,0.73803,0.52536,1.3664,0.9375,1.885,0.41213,0.51867,0.91416,0.92096,1.5061,1.2069,0.59192,0.28592,1.2602,0.42888,2.005,0.42888,0.59821,0.000001,1.1566-0.08644,1.6753-0.25933,0.51866-0.17289,0.93749-0.41883,1.2565-0.73782v-4.0897h-3.1315v-0.778h4.0093v5.2068c-0.41235,0.43872-0.94765,0.79769-1.6059,1.0769-0.65829,0.27922-1.4194,0.41883-2.2835,0.41883-0.83807,0-1.6062-0.1596-2.3045-0.47879-0.69826-0.3192-1.2933-0.77465-1.7852-1.3664-0.49188-0.59172-0.87419-1.3099-1.1469-2.1544-0.27273-0.84456-0.40909-1.792-0.40909-2.8423z"/>
		<path d="m63.067,43.493c0.47889,0.54505,1.0508,0.97717,1.7158,1.2964,0.66497,0.3192,1.383,0.47879,2.1541,0.47879,0.99756,0.000001,1.7922-0.24269,2.3839-0.72808,0.59171-0.48539,0.88757-1.1203,0.88758-1.9048-0.000009-0.41233-0.06312-0.75811-0.18933-1.0373-0.12623-0.27922-0.29577-0.52191-0.50862-0.72808-0.21287-0.20616-0.46561-0.38575-0.75822-0.53876-0.29262-0.153-0.59842-0.30255-0.91741-0.44866l-1.996-0.898c-0.279-0.119-0.575-0.266-0.887-0.439-0.313-0.172-0.599-0.389-0.858-0.648s-0.475-0.565-0.648-0.917c-0.173-0.353-0.26-0.775-0.26-1.267-0.000001-0.47888,0.09639-0.91446,0.28916-1.3067s0.4587-0.73132,0.79779-1.0172c0.33908-0.2859,0.74137-0.50861,1.2069-0.66812,0.4655-0.15948,0.97098-0.23923,1.5164-0.23924,0.79788,0.000014,1.5093,0.15626,2.1343,0.46875,0.62499,0.31251,1.137,0.68142,1.5359,1.1067l-0.53876,0.6185c-0.38556-0.41232-0.83767-0.74146-1.3563-0.98742-0.51867-0.24593-1.1104-0.3689-1.7752-0.36891-0.87784,0.000012-1.5794,0.21278-2.1048,0.63829-0.52537,0.42554-0.78805,0.99747-0.78805,1.7158-0.000003,0.38556,0.07315,0.71135,0.21946,0.97737,0.1463,0.26604,0.33248,0.49544,0.55854,0.68821,0.22605,0.19278,0.47209,0.35898,0.73813,0.49858,0.26603,0.13962,0.51876,0.26259,0.75822,0.36891l1.9949,0.87784c0.35876,0.1595,0.70444,0.33899,1.037,0.53845,0.33258,0.19948,0.62519,0.43223,0.87784,0.69825,0.25263,0.26604,0.45545,0.58188,0.60846,0.94754,0.15299,0.36567,0.2295,0.80114,0.2295,1.3064-0.000009,0.50528-0.09975,0.97403-0.29921,1.4062-0.19948,0.43222-0.48215,0.80459-0.84801,1.1171-0.36588,0.3125-0.80814,0.55854-1.3268,0.73813-0.51867,0.17959-1.097,0.26938-1.735,0.26938-0.9578,0-1.8057-0.18283-2.5437-0.5485-0.73803-0.36566-1.3664-0.84111-1.885-1.4263z"/>
		<path d="m73.753,32.721,0.91802,0,0,12.348,6.0438,0,0,0.79809-6.9618,0z"/>
		<path d="m82.948,32.721,7.1816,0,0,0.79809-6.2636,0,0,4.9669,5.2658,0,0,0.79809-5.2658,0,0,5.7845,6.4626,0,0,0.79809-7.3807,0z"/>
		<path d="m95.132,40.54-3.9497-7.8196,0.97768,0,1.9949,4.1092c0.22605,0.4789,0.45211,0.9511,0.67816,1.4166,0.22605,0.46551,0.4653,0.9375,0.71773,1.416h0.07975c0.25284-0.47848,0.49898-0.95048,0.73843-1.416,0.23944-0.46549,0.47219-0.93769,0.69825-1.4166l1.9949-4.1092h0.9375l-3.9497,7.8196v5.3261h-0.91802z"/>
	</g>
</svg>
