<svg height="87.229" viewBox="0 0 111.42 87.229" width="111.42" xmlns="http://www.w3.org/2000/svg"><rect fill="#555" height="74.44" rx="4" width="74.44" y="5.6761"/><path d="m50.198.00009998c-6.2603.061795-5.0758 10.698-13.707 15.425 15.373.17744 9.6398-11.446 15.489-9.7482h8.2135c-4.8494-2.696-7.9798-5.6962-9.9959-5.6763zm46.876 3.8753c-4.3148-.03251-11.093 1.358-13.38 3.5098-5.6278 5.2968 9.778 14.811 2.1638 20.604-5.9699 4.5423-1.9607-2.0561-11.419-12.481v9.8419c.27723.87267 1.2051 2.4581 1.485 3.482-9.7576-10.129-10.786 5.5309-21.049.23409s-.4977-15.26-1.4908-3.7395c1.8159-3.6955 2.2847-6.0002-2.6174-9.1001-3.0356-1.9196-7.5976 15.224 4.2633 17.916 9.9051 2.2488 16.706-2.8225 24.816 2.7388-9.6807-1.1102-3.3224 4.9585-8.2881 13.235-4.9657 8.2763-12.557-1.4148-19.349 11.707 11.116-6.4242 16.764-.91205 21.587-3.9765 5.1961-3.3017 5.1115-5.3625 8.569-14.37.18013 7.3692 6.1259 13.222 1.899 20.104-4.4619 7.2643-22.538 15.706-8.3145 23.649-4.9874-9.1698 3.077-10.707 10.69-14.843 7.6134-4.1354 12.503-11.197 5.3869-23.267-7.1162-12.069 15.056-7.128 14.063-13.087-.99315-5.9589 6.986-20.31 5.0138-25.748-1.171-3.2288-7.7244-6.3621-14.031-6.4096z" fill="#f65"/></svg>