<svg height="46.106" viewBox="0 0 100 46.106" width="100" xmlns="http://www.w3.org/2000/svg">
	<g fill="#f65">
		<path d="m0 .48722h1.8696v26.771h-1.8696z" />
		<path d="m8.5481 22.425c.97527 1.11 2.14 1.99 3.4943 2.6401 1.3542.65005 2.8165.97507 4.3869.97507 2.0315.000001 3.6498-.49425 4.8549-1.4827 1.205-.9885 1.8075-2.2816 1.8076-3.8792-.000018-.83972-.12854-1.5439-.38556-2.1125-.25706-.56862-.60233-1.0629-1.0358-1.4827-.43352-.41985-.94822-.78558-1.5441-1.0972-.59592-.31158-1.2187-.61615-1.8683-.9137l-4.063-1.829c-.568-.244-1.171-.542-1.807-.894-.637-.352-1.219-.792-1.747-1.32s-.9684-1.151-1.3205-1.8684-.5282-1.5774-.5281-2.58c-.0001-.9752.1962-1.8623.5888-2.6611s.9338-1.4893 1.6248-2.0716c.69-.5823 1.51-1.0358 2.458-1.3607.948-.32478 1.977-.48719 3.088-.48722 1.625.00002726 3.074.31823 4.347.95461 1.272.63639 2.315 1.3877 3.127 2.2539l-1.097 1.2596c-.785-.8397-1.706-1.51-2.762-2.0109-1.056-.5008-2.261-.7513-3.615-.7513-1.7877.0000256-3.2166.43332-4.2865 1.2999-1.0699.86661-1.6049 2.0314-1.6049 3.4943-.000005.7852.14897 1.4487.44693 1.9904.29795.54179.67711 1.009 1.1375 1.4015.46036.39261.96142.73106 1.5032 1.0154.54176.28433 1.0565.53476 1.5441.75129l4.0627 1.7877c.73062.32483 1.4346.69035 2.1119 1.0966.6773.40624 1.2732.88024 1.7877 1.422.51448.54178.92753 1.185 1.2391 1.9297.31157.74469.46737 1.6315.46739 2.6605-.00002 1.029-.20313 1.9836-.60934 2.8638-.40624.88023-.9819 1.6385-1.727 2.275-.74511.63641-1.6458 1.1375-2.702 1.5032-1.0563.36573-2.2341.54859-3.5333.54859-1.9506 0-3.6773-.37234-5.1803-1.117-1.5047-.746-2.7844-1.714-3.8406-2.906z" />
		<path d="m41.766 16.492-1.706-4.996c-.542-1.5974-1.057-3.1274-1.544-4.5899s-.961-3.0199-1.422-4.6721h-.16241c-.461 1.6522-.935 3.2096-1.422 4.6721-.488 1.4625-1.002 2.9925-1.544 4.5899l-1.7059 4.9962zm.52814 1.5844h-10.604l-3.1279 9.1816h-1.9092l9.4655-26.771h1.8683l9.4259 26.771h-1.991z" />
		<path d="m51.415.48722h1.8696v26.771h-1.8696z" />
		<path d="m72.314 16.492-1.706-4.996c-.542-1.5974-1.057-3.1274-1.544-4.5899-.488-1.4625-.962-3.0199-1.423-4.6721h-.16241c-.461 1.6522-.934 3.2096-1.422 4.6721-.487 1.4625-1.002 2.9925-1.544 4.5899l-1.7059 4.9962zm.52814 1.5844h-10.604l-3.1279 9.1816h-1.9092l9.4655-26.771h1.8683l9.4259 26.771h-1.991z" />
		<path d="m81.963.48722h1.8696v11.74h14.299v-11.74h1.8683v26.771h-1.8683v-13.405h-14.299v13.405h-1.8696z" />
	</g>
	<g fill="#f65">
		<path d="m0 32.721h3.5509c1.3165.000013 2.3672.25935 3.1519.778.78469.51868 1.177 1.3233 1.177 2.4138-.0000097.69157-.19289 1.2933-.57863 1.8053-.38576.51198-.97089.8676-1.7554 1.0669v.07975c.97077.14652 1.7387.48245 2.3039 1.0078.56513.52537.84769 1.2469.84771 2.1645-.0000106.63799-.11639 1.1964-.34913 1.6753-.23276.4789-.5619.87794-.98742 1.1971-.42554.3192-.93751.55854-1.5359.71804-.59842.1595-1.27.23924-2.0147.23924l-3.8103-.001zm3.1717 5.7851c1.3567.000007 2.3276-.21945 2.9126-.65838.5850164-.439137.8775277-1.090819.8775365-1.955274-.0000088-.851043-.3091597-1.466098-.9274535-1.845167-.6183096-.379046-1.5325722-.568574-2.7427907-.568587h-2.37357468v5.027182zm.39935 6.6027c1.3165.000001 2.3472-.24604 3.0919-.73813.74471-.49208 1.1171-1.27 1.1171-2.3337-.0000097-.94439-.36578-1.646-1.0973-2.1048-.73154-.4588-1.7688-.6882-3.1117-.68821h-2.653v5.8648z" />
		<path d="m11.377 32.721h.91802v13.146h-.91802z" />
		<path d="m16.013 32.721h.91802v12.348h6.0438v.79809h-6.9618z" />
		<path d="m25.208 32.721h.91802v12.348h6.0438v.79809h-6.9618z" />
		<path d="m34.403 32.721h.91802v13.146h-.91802z" />
		<path d="m39.039 32.721h.95759l5.5258 9.2758 1.4957 2.6134h.07975c-.02639-.63839-.05287-1.2768-.07944-1.9152-.02659-.63839-.03988-1.2768-.03988-1.9152v-8.0588h.85775v13.146h-.95759l-5.5258-9.2758-1.4957-2.6134h-.07975c.02638.6384.05286 1.2602.07944 1.8653.02658.60512.03987 1.2269.03987 1.8653v8.1587h-.85775z" />
		<path d="m50.727 39.264c-.000001-1.0373.13961-1.9749.41883-2.8128.27922-.83785.67492-1.5526 1.1871-2.1444.51217-.59171 1.1273-1.0438 1.8455-1.3563.71813-.31249 1.5092-.46874 2.3733-.46875.43912.000014.84151.04648 1.2072.13941.36566.09295.6948.21592.98742.36891.2926.15302.55194.32266.778.50893.22604.18629.42552.37237.59842.55824l-.53876.59842c-.34579-.37215-.75802-.68789-1.2367-.94724-.4787-.25932-1.0772-.38899-1.7956-.389-.75772.000012-1.4358.13962-2.0342.41883-.59842.27923-1.1071.67483-1.5262 1.1868-.41904.51198-.74158 1.1337-.96763 1.8653-.22606.73154-.33908 1.5561-.33908 2.4737-.000002.91762.10643 1.7454.3193 2.4835.21286.73803.52536 1.3664.9375 1.885.41213.51867.91416.92096 1.5061 1.2069.59192.28592 1.2602.42888 2.005.42888.59821.000001 1.1566-.08644 1.6753-.25933.51866-.17289.93749-.41883 1.2565-.73782v-4.0897h-3.1315v-.778h4.0093v5.2068c-.41235.43872-.94765.79769-1.6059 1.0769-.65829.27922-1.4194.41883-2.2835.41883-.83807 0-1.6062-.1596-2.3045-.47879-.69826-.3192-1.2933-.77465-1.7852-1.3664-.49188-.59172-.87419-1.3099-1.1469-2.1544-.27273-.84456-.40909-1.792-.40909-2.8423z" />
		<path d="m63.067 43.493c.47889.54505 1.0508.97717 1.7158 1.2964.66497.3192 1.383.47879 2.1541.47879.99756.000001 1.7922-.24269 2.3839-.72808.59171-.48539.88757-1.1203.88758-1.9048-.000009-.41233-.06312-.75811-.18933-1.0373-.12623-.27922-.29577-.52191-.50862-.72808-.21287-.20616-.46561-.38575-.75822-.53876-.29262-.153-.59842-.30255-.91741-.44866l-1.996-.898c-.279-.119-.575-.266-.887-.439-.313-.172-.599-.389-.858-.648s-.475-.565-.648-.917c-.173-.353-.26-.775-.26-1.267-.000001-.47888.09639-.91446.28916-1.3067s.4587-.73132.79779-1.0172c.33908-.2859.74137-.50861 1.2069-.66812.4655-.15948.97098-.23923 1.5164-.23924.79788.000014 1.5093.15626 2.1343.46875.62499.31251 1.137.68142 1.5359 1.1067l-.53876.6185c-.38556-.41232-.83767-.74146-1.3563-.98742-.51867-.24593-1.1104-.3689-1.7752-.36891-.87784.000012-1.5794.21278-2.1048.63829-.52537.42554-.78805.99747-.78805 1.7158-.000003.38556.07315.71135.21946.97737.1463.26604.33248.49544.55854.68821.22605.19278.47209.35898.73813.49858.26603.13962.51876.26259.75822.36891l1.9949.87784c.35876.1595.70444.33899 1.037.53845.33258.19948.62519.43223.87784.69825.25263.26604.45545.58188.60846.94754.15299.36567.2295.80114.2295 1.3064-.000009.50528-.09975.97403-.29921 1.4062-.19948.43222-.48215.80459-.84801 1.1171-.36588.3125-.80814.55854-1.3268.73813-.51867.17959-1.097.26938-1.735.26938-.9578 0-1.8057-.18283-2.5437-.5485-.73803-.36566-1.3664-.84111-1.885-1.4263z" />
		<path d="m73.753 32.721h.91802v12.348h6.0438v.79809h-6.9618z" />
		<path d="m82.948 32.721h7.1816v.79809h-6.2636v4.9669h5.2658v.79809h-5.2658v5.7845h6.4626v.79809h-7.3807z" />
		<path d="m95.132 40.54-3.9497-7.8196h.97768l1.9949 4.1092c.22605.4789.45211.9511.67816 1.4166.22605.46551.4653.9375.71773 1.416h.07975c.25284-.47848.49898-.95048.73843-1.416.23944-.46549.47219-.93769.69825-1.4166l1.9949-4.1092h.9375l-3.9497 7.8196v5.3261h-.91802z" />
	</g>
</svg>